<svg height="665.12779" viewBox="0 0 951.57086 665.12779" width="951.57086" xmlns="http://www.w3.org/2000/svg"><g transform="translate(-124.21457 -117.43611)"><path d="m166.5995 372.68625c.90983 56.17389 21.9053 62.25537 47.68851 56.39652 29.45433-6.693 53.6295-27.67107 65.54457-55.4269l8.21721-19.14177a52.21662 52.21662 0 0 0 -27.38436-68.5802h-.0001a52.21661 52.21661 0 0 0 -68.58022 27.38436c-26.44194 10.38705-31.66422 31.89112-25.48561 59.36799z" fill="#2f2e41"/><path d="m332.38876 259.62619 7.91365-13.39131a12.57983 12.57983 0 0 0 -7.10867-18.41687 12.57983 12.57983 0 0 0 -16.2947 12.423l.46505 14.39458-37.19064 101.9211 20.28071 4.23409z" fill="#9f616a"/><path d="m136.73039 510.87935-9.74073 12.12728a12.57982 12.57982 0 0 0 4.41236 19.24175 12.57983 12.57983 0 0 0 17.89835-9.97482l1.59045-14.314 51.33163-95.583-19.47062-7.08022z" fill="#9f616a"/><path d="m196.91231 611.77256 1.43374 17.22261.33632 4.01806 95.3352-9.16888a21.02015 21.02015 0 0 0 16.83326-29.47148l-30.74583-66.00536-10.62034-22.79833-46.02147-10.62034c-37.95 29.04658-3.80566 61.10227 39.15364 93.52972q2.52237 1.91174 5.09777 3.82338z" fill="#2f2e41"/><path d="m164.78854 671.41121a6.84954 6.84954 0 0 0 6.2494-2.41836l31.18452-37.74967-1.77006-17.70057-10.633-6.37978a6.987 6.987 0 0 0 -10.09383 3.42593l-20.33954 51.52682a6.84955 6.84955 0 0 0 5.40251 9.29563z" fill="#2f2e41"/><path d="m191.60214 608.23245 1.77006 21.24067 4.97385-.47795 90.36135-8.69093a21.02015 21.02015 0 0 0 16.83326-29.47148l-25.43566-56.94268v-5.52257l-10.62034-22.79833-46.02147-10.62034c-37.95 29.04658-3.80566 61.10227 39.15364 93.52972l-.2124.28327z" opacity=".2"/><path d="m155.93826 664.331a6.84951 6.84951 0 0 0 6.2494-2.41835l31.18454-37.74965-1.77006-17.70056-10.633-6.37978a6.987 6.987 0 0 0 -10.09384 3.42593l-20.3395 51.52677a6.84954 6.84954 0 0 0 5.40246 9.29564z" fill="#2f2e41"/><path d="m188.062 604.69233 1.77 21.24068 95.33529-9.17139a21.0234 21.0234 0 0 0 16.84071-29.46749l-25.44316-56.94413v-31.861l-61.952-10.62033c-39.44328 30.18689-1.01208 63.62728 44.25141 97.35309z" fill="#2f2e41"/></g><circle cx="124.02937" cy="211.12744" fill="#9f616a" r="26.55084"/><path d="m212.84282 372.815 37.17118 24.78074 31.861-7.08022-17.70055-17.70052v-26.55089l-28.3209-1.77005c-.59463 10.60256-6.67002 20.30481-23.01073 28.32094z" fill="#9f616a" transform="translate(-124.21457 -117.43611)"/><path d="m207.53265 496.7189 69.03219 8.85028 15.93051-74.34237c7.40077-19.73352 3.15453-37.16842-10.54741-52.737a11.8239 11.8239 0 0 0 -11.23618-9.49965l-6.53731.28464c.7395 23.47551-16.55636 17.82135-42.48135-1.77l-3.13044.93913a17.58322 17.58322 0 0 0 -12.34088 19.41846l2.8545 19.26788a131.83032 131.83032 0 0 0 5.61911 22.46529c7.07752 21.1521 4.54835 43.5448-7.16274 67.12334z" fill="#6c63ff" transform="translate(-124.21457 -117.43611)"/><path d="m175.67163 417.06636 31.861 10.62034 14.16045-51.33163-4.79727-2.18058a17.20447 17.20447 0 0 0 -22.28465 7.538z" fill="#6c63ff" transform="translate(-124.21457 -117.43611)"/><path d="m145.27 251.839 17.701 19.47 21.24-33.631-26.551-14.16z" fill="#6c63ff"/><path d="m217.268 320.5983c16.68448 6.2914 34.49038 5.63913 53.10169 0v-21.24068h-53.10169z" fill="#2f2e41" transform="translate(-124.21457 -117.43611)"/><path d="m921.132 567.779-18.305 7.627-122.029-166.265-88.471 169.316-22.88-4.576 67.116-233.381h77.793z" fill="#2f2e41"/><path d="m1069.90341 724.00146a7.976 7.976 0 0 1 -6.07834-.78277l-38.60279-22.22585a7.83329 7.83329 0 0 1 -1.63043-12.32748l3.45008-3.45006 18.30436-1.52536 27.98213 26.86284a7.976 7.976 0 0 1 -3.42501 13.44868z" fill="#2f2e41" transform="translate(-124.21457 -117.43611)"/><path d="m770.62955 730.10291a7.976 7.976 0 0 0 6.07834-.78278l38.60279-22.22585a7.83329 7.83329 0 0 0 1.63043-12.32748l-3.45008-3.45006-18.30436-1.52536-27.98213 26.86284a7.976 7.976 0 0 0 3.42501 13.44869z" fill="#2f2e41" transform="translate(-124.21457 -117.43611)"/><path d="m808.915 215.40339-7.62682 4.57609-15.80509-25.68327a11.5509 11.5509 0 0 1 7.45781-17.35692 11.55089 11.55089 0 0 1 13.89894 10.44984z" fill="#ffb9b9" transform="translate(-124.21457 -117.43611)"/><path d="m1020.18781 415.36054 3.16427-8.31241 28.30256 10.41136a11.55089 11.55089 0 0 1 4.87162 18.25236 11.55089 11.55089 0 0 1 -17.38487.38192z" fill="#ffb9b9" transform="translate(-124.21457 -117.43611)"/><circle cx="776.22219" cy="166.60864" fill="#ffb9b9" r="22.88045"/><path d="m796.052 215.42h-32.033v-35.083l27.457-3.051z" fill="#ffb9b9"/><path d="m943.14693 467.08834h-86.94571c3.06581-48.51189 5.4936-95.39321 0-122.02906l5.05559-24.26683a13.6723 13.6723 0 0 1 15.08076-10.7782l11.89628 1.487c8.05639 14.16347 17.79287 14.02685 28.98191 1.52537h14.32935a14.36528 14.36528 0 0 1 14.36246 14.64968 181.4649 181.4649 0 0 1 3.68663 52.08078z" fill="#3f3d56" transform="translate(-124.21457 -117.43611)"/><path d="m672.497 97.967 12.203-6.101 65.591 108.301-18.304 27.456z" fill="#3f3d56"/><path d="m1020.361 419.7006 10.42855-8.79682-55.413-77.64818a49.111 49.111 0 0 0 -48.84414-19.77546l-1.74815.321 20.95313 36.66813 27.59739 20.89445z" fill="#3f3d56" transform="translate(-124.21457 -117.43611)"/><path d="m926.898 270.538s4.27546-9.406-6.84076-13.6815c0 0-9.406-15.39169-28.21809-5.13056 0 0-12.82641 5.13056-12.82641 18.81206s-4.27547 16.24678-4.27547 16.24678 6.36692-6.53187 8.07711-11.66243 15.01043-6.29454 20.141-1.164 17.957 4.27546 17.957 4.27546l-.8551 18.81207s4.27547-11.11622 5.98566-11.11622 3.42035-15.39166.85506-15.39166z" fill="#2f2e41" transform="translate(-124.21457 -117.43611)"/><ellipse cx="800.57086" cy="657.83612" fill="#e6e6e6" rx="140" ry="7.29167"/><ellipse cx="101.57086" cy="657.83612" fill="#e6e6e6" rx="74" ry="3.85417"/><path d="m791.16889 245.72478-449.86851 40.31886a8.37412 8.37412 0 0 1 -9.07753-7.58424l-10.00139-111.59315a8.37413 8.37413 0 0 1 7.58424-9.07753l449.86852-40.31887a8.37412 8.37412 0 0 1 9.07752 7.58424l10.00139 111.59316a8.37412 8.37412 0 0 1 -7.58424 9.07753z" fill="#6c63ff" transform="translate(-124.21457 -117.43611)"/><circle cx="269.65462" cy="99.25313" fill="#fff" r="35.12995"/><path d="m472.58815 186.12032a5.855 5.855 0 0 0 1.04531 11.66323l274.91914-24.63926a5.855 5.855 0 1 0 -1.0453-11.66324z" fill="#fff" transform="translate(-124.21457 -117.43611)"/><path d="m475.72406 221.11a5.855 5.855 0 1 0 1.0453 11.66323l274.91915-24.63923a5.855 5.855 0 1 0 -1.0453-11.66324z" fill="#fff" transform="translate(-124.21457 -117.43611)"/></svg>