<svg height="710" viewBox="0 0 943.07028 710" width="943.07028" xmlns="http://www.w3.org/2000/svg"><path d="m933.25616 166.39389c-7.05082 20.8757-17.86231 39.89659-39.89659 39.89659s-38.65507-17.89732-39.89657-39.89659c-1.5864-28.11068 17.354-40.013 39.89659-39.89658 26.63041.13755 48.26419 15.1222 39.89657 39.89658z" fill="#2f2e41" transform="translate(-128.46486 -95)"/><path d="m724.99812 68.24416h78.74327v99.74147h-78.74327z" fill="#2f2e41"/><path d="m595.444 372.758h-279.579l-71.546 336.816h422.671z" fill="#f2f2f2"/><path d="m795.455 430.93825c0 6.08351-39.262 11.312-95.17433 13.52305-15.48987.6108-32.2501 1.00171-49.81662 1.09939q-5.03907.03668-10.15144.03668c-85.6826 0-155.14239-6.56-155.14239-14.65912s69.45978-14.65913 155.14237-14.65913 155.14241 6.55996 155.14241 14.65913z" fill="#3f3d56" transform="translate(-128.46486 -95)"/><path d="m254.39441 616.6206h382.14799v2.44295h-382.14799z" fill="#3f3d56" transform="matrix(.20802812 -.97812285 .97812285 .20802812 -379.99186 830.03637)"/><path d="m833.93472 426.76808h2.44412v382.14799h-2.44412z" fill="#3f3d56" transform="matrix(.9781751 -.20778228 .20778228 .9781751 -238.61428 92.01513)"/><path d="m0 707.30271h943.07028v2.44319h-943.07028z" fill="#2f2e41"/><path d="m613.73478 432.00518-5.01668-1.64256c-17.90559-6.03682-29.66891-9.89213-33.859-19.33671a14.69889 14.69889 0 0 1 7.5232-19.699 15.989 15.989 0 0 1 13.43334.28766 15.98839 15.98839 0 0 1 8.80178-10.15216 14.6989 14.6989 0 0 1 19.65306 7.64237c4.19009 9.4447-.8461 20.753-8.38683 38.07884z" fill="#ff6584" transform="translate(-128.46486 -95)"/><path d="m700.28065 444.4613c-15.48987.6108-32.2501 1.00171-49.81662 1.09939a15.0415 15.0415 0 0 1 6.43782-5.375 15.96167 15.96167 0 0 1 13.4253.29317 16.02917 16.02917 0 0 1 8.80772-10.15144 14.70334 14.70334 0 0 1 19.6554 7.64719 17.64952 17.64952 0 0 1 1.49038 6.48669z" fill="#ff6584" transform="translate(-128.46486 -95)"/><path d="m617.36274 276.82955-2.0642-1.55853c-7.33987-5.64347-12.17948-9.29973-12.62069-14.34312a7.2022 7.2022 0 0 1 6.61739-7.9349 7.83435 7.83435 0 0 1 6.18061 2.26805 7.83407 7.83407 0 0 1 5.6929-3.30679 7.20221 7.20221 0 0 1 7.89467 6.66534c.44122 5.04345-3.69007 9.48452-9.93846 16.31667z" fill="#ff6584" transform="translate(-128.46486 -95)"/><path d="m649.12417 193.76118-2.0642-1.55853c-7.33986-5.64347-12.17948-9.29973-12.62069-14.34312a7.20221 7.20221 0 0 1 6.61739-7.9349 7.83431 7.83431 0 0 1 6.18061 2.26806 7.834 7.834 0 0 1 5.69291-3.30679 7.2022 7.2022 0 0 1 7.89467 6.66533c.44122 5.04345-3.69008 9.48452-9.93847 16.31667z" fill="#ff6584" transform="translate(-128.46486 -95)"/><path d="m656.5452 345.69433-.76664-4.3478c-2.60783-15.58686-4.40269-25.78323.9111-32.59774a12.29339 12.29339 0 0 1 17.4957-2.21868 13.37233 13.37233 0 0 1 5.08474 10.02135 13.37184 13.37184 0 0 1 10.95848 2.48876 12.2934 12.2934 0 0 1 2.11267 17.50882c-5.31386 6.8146-15.64028 7.55908-31.39252 8.82906z" fill="#ff6584" transform="translate(-128.46486 -95)"/><path d="m283.47125 804.085-2.17119-1.12139c28.19686-54.51242 13.119-125.3052-4.49389-175.09349a536.63547 536.63547 0 0 0 -45.53836-96.10864l2.065-1.3051a539.3786 539.3786 0 0 1 45.77576 96.59775c17.77516 50.244 32.95919 121.74302 4.36268 177.03087z" fill="#2f2e41" transform="translate(-128.46486 -95)"/><path d="m253.56806 573.2543h88.17503v2.44241h-88.17503z" fill="#2f2e41" transform="matrix(.17975 -.98371 .98371 .17975 -449.43054 669.02412)"/><path d="m237.79705 589.53078h2.44406v120.14546h-2.44406z" fill="#2f2e41" transform="matrix(.73207129 -.68122803 .68122803 .73207129 -506.9529 241.87393)"/><path d="m290.93155 729.6177h70.86296v2.44356h-70.86296z" fill="#2f2e41" transform="matrix(.58584701 -.81042167 .81042167 .58584701 -585.58879 472.17104)"/><circle cx="183.23904" cy="400.68271" fill="#6c63ff" r="12.21594"/><circle cx="50.08534" cy="494.74542" fill="#3f3d56" r="12.21594"/><circle cx="103.83546" cy="506.96136" fill="#3f3d56" r="12.21594"/><circle cx="79.40359" cy="554.60351" fill="#6c63ff" r="12.21594"/><circle cx="232.10279" cy="585.14335" fill="#3f3d56" r="12.21594"/><circle cx="191.7902" cy="598.58088" fill="#3f3d56" r="12.21594"/><circle cx="219.88685" cy="637.67187" fill="#3f3d56" r="12.21594"/><circle cx="91.61952" cy="415.34183" fill="#3f3d56" r="12.21594"/><g transform="translate(-128.46486 -95)"><path d="m934.51842 237.552h6.69758s16.37193 20.837 8.93014 49.11579-1.48836 33.488-1.48836 33.488 9.68812 30.62355-.73038 76.76262 9.66053 58.67789 9.66053 58.67789l-18.60444-37.2089-10.41849-98.23158z" fill="#6c63ff"/><path d="m934.51842 237.59h6.69758s16.37193 20.837 8.93014 49.11579-1.48836 33.488-1.48836 33.488 9.68812 30.62355-.73038 76.76262 9.66053 58.67789 9.66053 58.67789l-18.60447-37.20893-10.41846-98.23156z" opacity=".1"/><path d="m911.07679 201.45934s-5.95342 23.81371-2.97671 23.81371 13.39521 12.651 13.39521 12.651l6.69761 24.55795-5.20925 17.86029-17.86028-3.72089-22.32537-24.55792-6.69761-6.69761-5.95339-21.58118s7.44179-8.93014 2.23254-16.37193 38.69725-5.95342 38.69725-5.95342z" fill="#fbbebe"/><path d="m911.07679 201.45934s-5.95342 23.81371-2.97671 23.81371 13.39521 12.651 13.39521 12.651l6.69761 24.55795-5.20925 17.86029-17.86028-3.72089-22.32537-24.55792-6.69761-6.69761-5.95339-21.58118s7.44179-8.93014 2.23254-16.37193 38.69725-5.95342 38.69725-5.95342z" opacity=".1"/><path d="m730.98557 267.69123-16.37193-26.79043s-17.67264-39.10242-30.32364-24.96303 19.161 42.82332 19.161 42.82332l16.37193 21.58118z" fill="#fbbebe"/><path d="m948.28572 500.61914-11.90685 87.06886s1.48835 6.69761-13.39522 31.2555-55.06922 78.13876-55.06922 78.13876l-11.90685-22.32536s14.13939-70.697 38.69728-85.58054l-2.97671-107.16172z" fill="#fbbebe"/><path d="m948.28572 500.61914-11.90685 87.06886s1.48835 6.69761-13.39522 31.2555-55.06922 78.13876-55.06922 78.13876l-11.90685-22.32536s14.13939-70.697 38.69728-85.58054l-2.97671-107.16172z" opacity=".1"/><path d="m856.00758 665.82679 16.37193 31.2555s-13.39522 37.95311-8.186 41.674 11.90686 37.20893-2.23253 33.488-25.30208-18.60447-25.30208-20.837 8.186-33.488 3.7209-40.92983-7.44179-9.67432-7.44179-9.67432l-11.16268 18.60447-3.72089-2.23254 18.60446-31.2555s2.23254-5.95343 11.16268-9.67432z" fill="#2f2e41"/><path d="m856.00758 665.82679 16.37193 31.2555s-13.39522 37.95311-8.186 41.674 11.90686 37.20893-2.23253 33.488-25.30208-18.60447-25.30208-20.837 8.186-33.488 3.7209-40.92983-7.44179-9.67432-7.44179-9.67432l-11.16268 18.60447-3.72089-2.23254 18.60446-31.2555s2.23254-5.95343 11.16268-9.67432z" opacity=".1"/><path d="m891.90179 488.26586s5.77979 82.30606-6.87125 103.88724v107.16172l-17.11611 2.23254s-29.023-58.04593-16.37192-113.85933-18.60451-105.67336-18.60451-105.67336z" fill="#fbbebe"/></g><circle cx="759.17031" cy="93.43621" fill="#fbbebe" r="31.2555"/><path d="m919.26276 270.668-31.2555-39.44147-17.86026-11.90691-7.44179 9.67432-20.837 5.95343s-13.39521 2.97672-27.5346 19.34865-39.44147 26.04625-39.44147 26.04625l-20.837-3.72089s-24.5579-11.16268-24.5579-14.1394-21.58124 20.09282-16.37196 29.02302 16.37193 20.09282 22.32536 26.04625 8.186 23.06954 44.65072 17.86029 49.86-23.06954 49.86-23.06954 6.6976 34.23221 26.04625 40.92982 82.60382 11.16268 82.60382 11.16268l13.39522-44.65072s14.88357-19.34864-5.20925-47.62743c0 0-.38575-15.81551-2.54585-26.33965-.84018-4.09344-1.94881-7.38636-3.40758-8.63674-5.20925-4.46507-32.74386-11.90686-32.74386-11.90686s4.46507 14.88357 6.69761 15.62775 7.44175 26.0462 4.46504 29.76715z" fill="#6c63ff" transform="translate(-128.46486 -95)"/><path d="m819.17074 492.80526c37.47673-2.60462 59.2961 3.53485 69.03 8.21572a24.67577 24.67577 0 0 1 5.07535 3.08091c.71438.60278 1.05668 1.07162 1.05668 1.35441 0 2.23253 51.34832 6.6976 69.95278 2.23253s-12.651-100.46411-20.837-108.65007-3.773-38.14661-3.773-38.14661-16.31979-3.5274-20.78486-2.039-27.53461-2.23253-35.72057-6.69761-18.60447-1.48835-25.30208-2.97671c-2.99161-.66233-4.50231.45394-5.25394 1.89765a12.86777 12.86777 0 0 1 -5.09007 5.14225c-15.79889 9.10134-28.47973 72.02908-38.0276 106.81943-10.41852 37.95306 9.67431 29.7671 9.67431 29.7671z" fill="#2f2e41" transform="translate(-128.46486 -95)"/><path d="m888.00726 692.61722 2.97671 16.37193s15.62775 22.32535 11.16268 40.92982c0 0 3.72089 24.55789 17.11611 31.2555s2.23253 22.32536-10.4185 21.58118-24.5579.74418-26.04625-2.97671-10.4185-40.18565-10.4185-40.18565l-2.44319 42.67115-7.44179.74418 2.44319-49.36876s-5.95343-11.16268 2.23254-29.76714l-2.066-28.5575s20.67046 4.74378 22.903-2.698z" fill="#2f2e41" transform="translate(-128.46486 -95)"/><path d="m888.20075 501.021a24.67577 24.67577 0 0 1 5.07535 3.08091c.39425-7.0325 2.67148-49.56233-.05959-48.87765z" opacity=".1" transform="translate(-128.46486 -95)"/><path d="m874.69616 145.39569s-.34614-1.92689-13.88381 3.14973-21.65256 42.53989-14.88373 64.5386c2.72782 8.86539.50879 15.25736-3.113 19.72968-13.59108 16.78288-8.24083 41.9903 11.55563 50.62063q.83817.36541 1.7106.72243l8.461 5.07663s-10.786-14.19212-5.38828-32.34645a93.0793 93.0793 0 0 0 1.67966-47.65026c-.61927-2.65858-1.3227-5.39907-2.12176-8.19575-6.76883-23.69091-3.47676-20.955 20.21415-44.64589 0 0 13.53767 10.15325 25.38313 15.22988s21.9987 10.15325 13.53766 27.07533-28.76754 32.152-15.22987 54.15066 15.22987 13.53767 13.53767 21.99871l-1.69221 8.461 10.15325-10.15325-6.76884 13.53766s21.99871 0 28.76754-16.92208l3.38442 3.38442s13.53766-23.69092-11.84546-45.68962c0 0-8.461-5.07663 3.38442-21.99871s2.748-53.30456-12.48187-60.07339-54.3603.00004-54.3603.00004z" fill="#2f2e41" transform="translate(-128.46486 -95)"/><circle cx="764.89471" cy="24.14793" fill="#2f2e41" r="15.74865"/><path d="m874.46119 110.74865a15.7493 15.7493 0 0 1 14.17381-15.66912c-.51812-.05146-1.04321-.07953-1.57489-.07953a15.74865 15.74865 0 0 0 0 31.49731c.53168 0 1.05677-.02807 1.57486-.07953a15.74936 15.74936 0 0 1 -14.17378-15.66913z" fill="#2f2e41" transform="translate(-128.46486 -95)"/><path d="m689.43676 227.96581-2.0642-1.55854c-7.33986-5.64346-12.17948-9.29973-12.62069-14.34311a7.2022 7.2022 0 0 1 6.61739-7.9349 7.8343 7.8343 0 0 1 6.18061 2.26805 7.834 7.834 0 0 1 5.69291-3.30679 7.2022 7.2022 0 0 1 7.89467 6.66533c.44122 5.04345-3.69008 9.48452-9.93847 16.31667z" fill="#ff6584" transform="translate(-128.46486 -95)"/><circle cx="901.67862" cy="493.98532" fill="#f1f1f1" r="18.02529"/><circle cx="400.82523" cy="106.74014" fill="#f1f1f1" r="18.02529"/><circle cx="226.13734" cy="310.74627" fill="#f1f1f1" r="18.02529"/></svg>